<svg width="12" height="10" viewBox="0 0 12 10" fill="none" xmlns="http://www.w3.org/2000/svg">
<path fill-rule="evenodd" clip-rule="evenodd" d="M0 5C5.92734e-09 4.50294 0.402944 4.1 0.9 4.1H8.8655L6.2762 1.74875C5.91791 1.40423 5.90674 0.834495 6.25125 0.4762C6.59576 0.117906 7.1655 0.106734 7.5238 0.451248L11.7238 4.35125C11.9003 4.52093 12 4.75518 12 5C12 5.24481 11.9003 5.47906 11.7238 5.64875L7.5238 9.54875C7.1655 9.89326 6.59576 9.88209 6.25125 9.5238C5.90674 9.1655 5.91791 8.59576 6.2762 8.25125L8.8655 5.9H0.9C0.402944 5.9 -5.92734e-09 5.49705 0 5Z" fill="#333333"/>
</svg>
