<svg width="51" height="26" viewBox="0 0 51 26" fill="none" xmlns="http://www.w3.org/2000/svg">
<g opacity="0.9">
<path d="M16.974 23.9343C17.033 23.9554 17.0962 23.9765 17.1594 24.0018C17.6062 24.1535 18.1627 24.3263 18.5884 24.457C19.031 24.5835 19.6253 24.7226 20.0721 24.828C14.2594 23.4074 9.29806 20.225 5.33154 15.3606L6.44857 16.739C6.58768 16.8949 6.70992 17.034 6.82794 17.1605C7.24103 17.5904 7.73 18.0878 8.22739 18.5684C8.53511 18.8508 8.91869 19.188 9.44981 19.6601C9.7238 19.8793 10.0442 20.1238 10.3729 20.3683C13.1929 22.4464 15.1193 23.2135 16.9782 23.9385L16.974 23.9343Z" fill="#262626"/>
<path d="M2.01351 9.43413C6.63338 20.3431 18.2041 24.5204 22.2929 25.2075C22.314 25.2075 22.3308 25.2117 22.3519 25.2159C22.5669 25.2412 22.8367 25.2707 23.0474 25.2918L23.4774 25.3297C23.4774 25.3297 23.4942 25.3297 23.4984 25.3297C21.0873 25.1063 4.5047 20.2124 0.77002 5.15991C0.812172 5.38332 0.850109 5.60251 0.892261 5.80484C1.17046 6.85443 1.5962 8.22859 1.95449 9.27396C1.97557 9.32876 1.99665 9.37933 2.01351 9.43413Z" fill="#262626"/>
<path d="M24.9488 25.4057C25.0458 25.4057 25.1385 25.4099 25.2355 25.4099H25.2776C25.2776 25.4099 25.3113 25.4099 25.324 25.4099C25.4336 25.4099 25.539 25.4099 25.6486 25.4099C25.7413 25.4099 25.834 25.4099 25.9141 25.4099C25.9183 25.4099 25.9226 25.4099 25.9268 25.4099C24.0131 25.3762 -3.36896 14.9983 1.05701 -6.08618C1.05701 -6.08618 1.05701 -6.08619 1.05701 -6.08198C0.905262 -5.48763 0.757729 -4.68674 0.631273 -4.08817C0.509032 -3.32101 0.407867 -2.28828 0.323562 -1.51689C-0.127466 17.3968 22.445 25.1654 24.9488 25.4057Z" fill="#262626"/>
<path d="M3.51881 -12.1815C-7.60513 9.26549 23.5537 24.4065 27.28 25.3465C27.3053 25.3465 27.3306 25.3465 27.3558 25.3423L27.5202 25.3297C27.5455 25.3297 27.5708 25.3255 27.6003 25.3212C27.79 25.3044 28.0176 25.2791 28.2115 25.2622C28.2368 25.2622 28.2621 25.258 28.2832 25.2538C23.8699 21.8985 18.4997 20.0691 14.2465 16.4609C12.1642 14.6947 7.28721 10.5596 4.43773 5.02921C-1.26545 -6.03573 3.80966 -13.092 6.30085 -16.127C6.21234 -16.0258 6.12803 -15.9246 6.04373 -15.8277L5.62221 -15.3261C4.96463 -14.4198 4.13424 -13.1763 3.53989 -12.2195C3.53146 -12.2068 3.52724 -12.1942 3.51881 -12.1815Z" fill="#262626"/>
<path d="M19.684 -24.3215C19.684 -24.3215 19.7135 -24.3299 19.7303 -24.3342C19.6924 -24.3257 19.646 -24.3173 19.6123 -24.3089C19.3341 -24.2456 18.9716 -24.1487 18.6976 -24.0728C18.1328 -23.9169 17.3867 -23.685 16.8387 -23.4785C16.5015 -23.352 16.0547 -23.1834 15.7259 -23.0443C15.3296 -22.8757 14.8112 -22.6312 14.4192 -22.45C14.0187 -22.2645 13.5002 -21.9905 13.1209 -21.7671C12.6741 -21.5057 12.1219 -21.1643 11.6329 -20.8482C6.59572 -17.3833 2.62078 -11.8234 3.16875 -5.55538C4.46704 9.23159 21.2141 19.3734 27.5158 23.1924C28.9715 24.0748 29.7415 24.6874 29.8258 25.0302C29.8258 25.0302 29.8553 25.026 29.8679 25.0218C30.2136 24.9586 30.6477 24.8658 30.9934 24.7942C31.006 24.7942 31.0187 24.7899 31.0313 24.7857C31.1536 24.7436 31.2421 24.5665 31.3264 24.4654C31.0397 23.9132 30.4791 23.5169 27.4484 21.5316C19.6502 16.4227 11.8015 10.5467 7.21957 2.22169C-3.12034 -16.5739 16.9314 -26.2984 25.522 -24.0096C23.857 -24.6545 21.8295 -24.7262 19.6882 -24.3257L19.684 -24.3215Z" fill="#262626"/>
<path d="M28.4008 19.4325C33.1472 22.7878 34.2768 23.5845 32.7762 24.3264C32.7931 24.3222 32.81 24.318 32.8226 24.3137C33.0544 24.2421 33.3158 24.1536 33.5729 24.0693C33.75 24.0102 33.9228 23.947 34.0956 23.8838C36.2201 22.8974 34.3696 21.5317 29.9436 18.2733C25.0497 14.6693 18.9546 10.1843 13.7867 3.62547C-1.47237 -15.7392 14.8152 -25.3246 25.5134 -24.0053C13.3567 -26.6398 -12.8029 -9.67775 28.3966 19.4325H28.4008Z" fill="#262626"/>
<path d="M31.1915 15.664C36.7261 19.9087 38.8 21.4978 36.0516 23.0828C36.0727 23.0743 36.0938 23.0617 36.1149 23.0533C36.5743 22.8341 37.1476 22.5306 37.5902 22.3072C39.7315 21.0552 38.8758 19.601 37.6323 18.2184C32.4266 12.4309 25.5136 8.59507 20.1814 2.9509C3.02122 -15.2167 14.533 -24.2541 25.5178 -24.0012C14.3222 -25.0213 -5.66633 -12.5948 31.1915 15.6682V15.664Z" fill="#262626"/>
<path d="M35.4699 12.1529C40.7431 16.3765 42.6231 18.6485 39.8073 20.9332C40.2879 20.5959 40.8991 20.1154 41.3796 19.7487C41.6199 19.5506 41.8728 19.3356 42.113 19.1206C44.3007 17.1184 43.0741 16.0351 28.3546 3.06909C7.01718 -15.7223 16.6321 -22.3571 23.5872 -23.7439C17.2812 -22.5679 -0.304645 -16.5106 35.4699 12.1529Z" fill="#262626"/>
<path d="M34.4879 3.88266C43.2345 10.9221 46.5181 14.1425 43.6728 17.6411C43.6939 17.62 43.7108 17.6032 43.7276 17.5821C44.1745 17.1016 44.714 16.4651 45.1355 15.9803C45.1439 15.9677 45.1524 15.9592 45.1608 15.9466C47.652 12.684 45.2704 9.24862 35.0021 1.26922C8.21025 -19.5455 22.4029 -23.4319 25.5221 -24.001C23.2501 -23.7143 4.20158 -20.4897 34.4921 3.88266H34.4879Z" fill="#262626"/>
<path d="M36.2963 -1.74893C46.1936 5.64455 48.9167 9.42561 47.0662 13.2066C47.142 13.0802 47.2137 12.958 47.2854 12.8357L47.3528 12.7177C47.4034 12.6292 47.4498 12.5491 47.4961 12.469L48.061 11.3815C48.1284 11.2424 48.1959 11.1033 48.2633 10.9684C50.4721 5.90169 42.1007 -0.193514 36.545 -4.2359C18.4407 -17.4084 20.5567 -22.2517 25.518 -23.9968C21.2817 -22.8924 13.8461 -18.5086 36.2963 -1.74049V-1.74893Z" fill="#262626"/>
<path d="M36.7765 -7.48992C45.4177 -1.40316 50.594 2.66874 49.5191 7.74807C49.5697 7.57525 49.6245 7.40244 49.6708 7.23383C49.8437 6.60154 50.0165 5.88917 50.1556 5.32012C50.8975 0.257645 45.6706 -3.60349 37.0842 -9.47529C31.4105 -13.3575 20.8514 -20.5824 25.5177 -24.0051C18.2 -20.5782 32.1819 -10.7272 36.7765 -7.48992Z" fill="#262626"/>
<path d="M37.4135 -11.9665C47.1506 -5.64794 50.4596 -2.78159 50.6366 1.56851C50.6408 1.4842 50.6493 1.39568 50.6535 1.31137L50.683 0.249144L50.6577 -0.779369C50.6535 -0.897396 50.6493 -1.01121 50.6408 -1.12924C50.2657 -5.69431 44.1831 -9.45849 36.4904 -14.2133C31.078 -17.5559 24.9449 -21.3496 25.5224 -24.001C22.989 -21.3201 31.6724 -15.6886 37.4177 -11.9623L37.4135 -11.9665Z" fill="#262626"/>
</g>
</svg>
